<svg width="24" height="24" viewBox="0 0 24 24" fill="none" xmlns="http://www.w3.org/2000/svg">
<g clip-path="url(#clip0_2035_516)">
<path fill-rule="evenodd" clip-rule="evenodd" d="M0.000854492 2.25C0.000854492 2.05109 0.0798721 1.86032 0.220524 1.71967C0.361177 1.57902 0.551942 1.5 0.750854 1.5H3.00085C3.16815 1.50005 3.33063 1.55603 3.46245 1.65904C3.59427 1.76205 3.68787 1.90618 3.72835 2.0685L4.33585 4.5H21.7509C21.8618 4.50007 21.9713 4.52474 22.0715 4.57223C22.1718 4.61972 22.2602 4.68885 22.3305 4.77465C22.4008 4.86044 22.4512 4.96076 22.4781 5.06838C22.5049 5.176 22.5076 5.28823 22.4859 5.397L20.9859 12.897C20.953 13.0605 20.8666 13.2085 20.7403 13.3174C20.614 13.4264 20.455 13.4901 20.2884 13.4985L6.19285 14.2065L6.62335 16.5H19.5009C19.6998 16.5 19.8905 16.579 20.0312 16.7197C20.1718 16.8603 20.2509 17.0511 20.2509 17.25C20.2509 17.4489 20.1718 17.6397 20.0312 17.7803C19.8905 17.921 19.6998 18 19.5009 18H6.00085C5.826 17.9998 5.6567 17.9386 5.52222 17.8268C5.38774 17.7151 5.29653 17.5599 5.26435 17.388L3.01585 5.4105L2.41585 3H0.750854C0.551942 3 0.361177 2.92098 0.220524 2.78033C0.0798721 2.63968 0.000854492 2.44891 0.000854492 2.25ZM4.65385 6L5.91385 12.7185L19.6299 12.03L20.8359 6H4.65385ZM7.50085 18C6.7052 18 5.94214 18.3161 5.37953 18.8787C4.81693 19.4413 4.50085 20.2044 4.50085 21C4.50085 21.7956 4.81693 22.5587 5.37953 23.1213C5.94214 23.6839 6.7052 24 7.50085 24C8.2965 24 9.05957 23.6839 9.62218 23.1213C10.1848 22.5587 10.5009 21.7956 10.5009 21C10.5009 20.2044 10.1848 19.4413 9.62218 18.8787C9.05957 18.3161 8.2965 18 7.50085 18ZM18.0009 18C17.2052 18 16.4421 18.3161 15.8795 18.8787C15.3169 19.4413 15.0009 20.2044 15.0009 21C15.0009 21.7956 15.3169 22.5587 15.8795 23.1213C16.4421 23.6839 17.2052 24 18.0009 24C18.7965 24 19.5596 23.6839 20.1222 23.1213C20.6848 22.5587 21.0009 21.7956 21.0009 21C21.0009 20.2044 20.6848 19.4413 20.1222 18.8787C19.5596 18.3161 18.7965 18 18.0009 18ZM7.50085 19.5C7.10303 19.5 6.7215 19.658 6.44019 19.9393C6.15889 20.2206 6.00085 20.6022 6.00085 21C6.00085 21.3978 6.15889 21.7794 6.44019 22.0607C6.7215 22.342 7.10303 22.5 7.50085 22.5C7.89868 22.5 8.28021 22.342 8.56151 22.0607C8.84282 21.7794 9.00085 21.3978 9.00085 21C9.00085 20.6022 8.84282 20.2206 8.56151 19.9393C8.28021 19.658 7.89868 19.5 7.50085 19.5ZM18.0009 19.5C17.603 19.5 17.2215 19.658 16.9402 19.9393C16.6589 20.2206 16.5009 20.6022 16.5009 21C16.5009 21.3978 16.6589 21.7794 16.9402 22.0607C17.2215 22.342 17.603 22.5 18.0009 22.5C18.3987 22.5 18.7802 22.342 19.0615 22.0607C19.3428 21.7794 19.5009 21.3978 19.5009 21C19.5009 20.6022 19.3428 20.2206 19.0615 19.9393C18.7802 19.658 18.3987 19.5 18.0009 19.5Z" fill="#343A40"/>
</g>
<defs>
<clipPath id="clip0_2035_516">
<rect width="24" height="24" fill="white" transform="translate(0.000854492)"/>
</clipPath>
</defs>
</svg>
