<svg width="25" height="24" viewBox="0 0 25 24" fill="none" xmlns="http://www.w3.org/2000/svg">
<path fill-rule="evenodd" clip-rule="evenodd" d="M8.10201 1.25H17.2314C17.8013 1.24998 18.2853 1.24997 18.6852 1.29132C19.111 1.33534 19.5045 1.43094 19.8763 1.66071C20.2481 1.89048 20.5096 2.19971 20.7394 2.56088C20.9552 2.9001 21.1716 3.33297 21.4265 3.8428L21.443 3.87574C21.4527 3.89518 21.4616 3.91504 21.4696 3.93526L22.8732 7.4834C23.0402 7.90559 23.2253 8.4323 23.2794 8.97128C23.3348 9.52258 23.2588 10.1541 22.8268 10.7019C22.4735 11.15 21.9822 11.4863 21.4167 11.6463V21.25H22.6667C23.0809 21.25 23.4167 21.5858 23.4167 22C23.4167 22.4142 23.0809 22.75 22.6667 22.75H2.66675C2.25254 22.75 1.91675 22.4142 1.91675 22C1.91675 21.5858 2.25254 21.25 2.66675 21.25H3.91675V11.6464C3.35121 11.4863 2.85987 11.15 2.5065 10.7019C2.07454 10.1541 1.99857 9.52257 2.05393 8.97127C2.10805 8.43229 2.29314 7.90559 2.46015 7.4834L3.86376 3.93526C3.87176 3.91504 3.88063 3.89518 3.89036 3.87574L3.90685 3.84275C4.16173 3.33295 4.37814 2.90009 4.59398 2.56088C4.82379 2.19971 5.08528 1.89048 5.45706 1.66071C5.82883 1.43094 6.22236 1.33534 6.64817 1.29132C7.04809 1.24997 7.53204 1.24998 8.10201 1.25ZM18.6666 10.8875C19.0026 11.2433 19.4325 11.5096 19.9167 11.6465V21.25H15.9167V18.4678C15.9167 18.028 15.9167 17.6486 15.8885 17.3374C15.8587 17.0082 15.7926 16.6822 15.6153 16.375C15.4178 16.033 15.1337 15.7489 14.7917 15.5514C14.4845 15.3741 14.1585 15.308 13.8294 15.2782C13.5181 15.25 13.1387 15.25 12.6989 15.25H12.6345C12.1947 15.25 11.8153 15.25 11.504 15.2782C11.1749 15.308 10.8489 15.3741 10.5417 15.5514C10.1997 15.7489 9.91567 16.033 9.71819 16.375C9.54082 16.6822 9.47477 17.0082 9.44493 17.3374C9.41672 17.6486 9.41673 18.028 9.41675 18.4677V21.25H5.41675V11.6465C5.90088 11.5095 6.33073 11.2433 6.66667 10.8875C7.16805 11.4186 7.87865 11.75 8.66666 11.75C9.45468 11.75 10.1653 11.4186 10.6667 10.8875C11.168 11.4186 11.8786 11.75 12.6666 11.75C13.4546 11.75 14.1652 11.4186 14.6666 10.8875C15.168 11.4186 15.8786 11.75 16.6666 11.75C17.4546 11.75 18.1652 11.4186 18.6666 10.8875ZM10.9167 21.25H14.4167V18.5C14.4167 18.0189 14.416 17.7082 14.3946 17.4727C14.3742 17.2476 14.3398 17.1659 14.3162 17.125C14.2504 17.011 14.1557 16.9163 14.0417 16.8505C14.0008 16.8269 13.9191 16.7925 13.694 16.7721C13.4585 16.7507 13.1478 16.75 12.6667 16.75C12.1856 16.75 11.8749 16.7507 11.6394 16.7721C11.4143 16.7925 11.3326 16.8269 11.2917 16.8505C11.1777 16.9163 11.083 17.011 11.0172 17.125C10.9936 17.1659 10.9592 17.2476 10.9388 17.4727C10.9174 17.7082 10.9167 18.0189 10.9167 18.5V21.25ZM7.41666 9C7.41666 9.69036 7.97631 10.25 8.66666 10.25C9.35702 10.25 9.91666 9.69036 9.91666 9C9.91666 8.58579 10.2524 8.25 10.6667 8.25C11.0808 8.25 11.4166 8.58579 11.4166 9C11.4166 9.69036 11.9763 10.25 12.6666 10.25C13.357 10.25 13.9166 9.69036 13.9166 9C13.9166 8.58579 14.2524 8.25 14.6666 8.25C15.0808 8.25 15.4166 8.58579 15.4166 9C15.4166 9.69036 15.9763 10.25 16.6666 10.25C17.357 10.25 17.9166 9.69036 17.9166 9C17.9166 8.58579 18.2524 8.25 18.6666 8.25C19.0808 8.25 19.4166 8.58579 19.4166 9C19.4166 9.69036 19.9763 10.25 20.6666 10.25C21.0646 10.25 21.4189 10.0649 21.649 9.77305C21.7629 9.62859 21.818 9.43094 21.7869 9.12114C21.7546 8.79903 21.6357 8.43275 21.4784 8.03518L20.0868 4.51739C19.8191 3.98204 19.6402 3.62749 19.4738 3.36612C19.3139 3.1147 19.1992 3.00562 19.0877 2.93669C18.9762 2.86776 18.8273 2.81401 18.5309 2.78336C18.2172 2.75093 17.8113 2.75 17.1945 2.75H8.13889C7.52208 2.75 7.11615 2.75093 6.80244 2.78336C6.50602 2.81401 6.35719 2.86776 6.24565 2.93669C6.13412 3.00562 6.01949 3.1147 5.85951 3.36612C5.69321 3.62749 5.5143 3.98204 5.24658 4.51739L3.85498 8.03518C3.6977 8.43275 3.57877 8.79903 3.54642 9.12115C3.51531 9.43095 3.57041 9.62861 3.68434 9.77307C3.91445 10.0649 4.26871 10.25 4.66666 10.25C5.35702 10.25 5.91666 9.69036 5.91666 9C5.91666 8.58579 6.25245 8.25 6.66666 8.25C7.08088 8.25 7.41666 8.58579 7.41666 9Z" fill="#797979"/>
</svg>
