<svg width="20" height="16" viewBox="0 0 20 16" fill="none" xmlns="http://www.w3.org/2000/svg">
<path d="M19.4701 7.185L18.4401 5.755C18.2095 5.43121 17.9051 5.16706 17.5521 4.98445C17.199 4.80184 16.8075 4.70604 16.4101 4.705H12.0301V2.565C12.0301 1.90196 11.7667 1.26608 11.2978 0.797235C10.829 0.328395 10.1931 0.0650024 9.53006 0.0650024H2.56006C1.89759 0.0668496 1.26277 0.330835 0.794332 0.799276C0.325891 1.26772 0.0619058 1.90253 0.0600586 2.565V12.505C0.0600586 12.9028 0.218094 13.2844 0.499398 13.5657C0.780703 13.847 1.16223 14.005 1.56006 14.005H2.78006C2.85557 14.54 3.12176 15.0298 3.52966 15.3842C3.93756 15.7385 4.45972 15.9337 5.00006 15.9337C5.54039 15.9337 6.06255 15.7385 6.47045 15.3842C6.87835 15.0298 7.14455 14.54 7.22006 14.005H12.7801C12.8556 14.54 13.1218 15.0298 13.5297 15.3842C13.9376 15.7385 14.4597 15.9337 15.0001 15.9337C15.5404 15.9337 16.0626 15.7385 16.4705 15.3842C16.8784 15.0298 17.1445 14.54 17.2201 14.005H18.4401C18.8379 14.005 19.2194 13.847 19.5007 13.5657C19.782 13.2844 19.9401 12.9028 19.9401 12.505V8.635C19.9376 8.11461 19.7734 7.60787 19.4701 7.185ZM5.00006 14.935C4.75283 14.935 4.51116 14.8617 4.3056 14.7243C4.10003 14.587 3.93982 14.3918 3.84521 14.1634C3.7506 13.9349 3.72585 13.6836 3.77408 13.4411C3.82231 13.1987 3.94136 12.9759 4.11618 12.8011C4.29099 12.6263 4.51372 12.5073 4.7562 12.459C4.99867 12.4108 5.25001 12.4355 5.47841 12.5302C5.70682 12.6248 5.90204 12.785 6.0394 12.9905C6.17675 13.1961 6.25006 13.4378 6.25006 13.685C6.25006 14.0165 6.11836 14.3345 5.88394 14.5689C5.64952 14.8033 5.33158 14.935 5.00006 14.935ZM11.0301 13.005H7.15006C7.00446 12.5491 6.71772 12.1513 6.33126 11.8691C5.9448 11.5868 5.47862 11.4347 5.00006 11.4347C4.5215 11.4347 4.05532 11.5868 3.66886 11.8691C3.2824 12.1513 2.99566 12.5491 2.85006 13.005H1.56006C1.42745 13.005 1.30027 12.9523 1.20651 12.8586C1.11274 12.7648 1.06006 12.6376 1.06006 12.505V2.565C1.06006 2.16718 1.21809 1.78565 1.4994 1.50434C1.7807 1.22304 2.16223 1.065 2.56006 1.065H9.53006C9.92788 1.065 10.3094 1.22304 10.5907 1.50434C10.872 1.78565 11.0301 2.16718 11.0301 2.565V13.005ZM15.0001 14.935C14.7528 14.935 14.5112 14.8617 14.3056 14.7243C14.1 14.587 13.9398 14.3918 13.8452 14.1634C13.7506 13.9349 13.7258 13.6836 13.7741 13.4411C13.8223 13.1987 13.9414 12.9759 14.1162 12.8011C14.291 12.6263 14.5137 12.5073 14.7562 12.459C14.9987 12.4108 15.25 12.4355 15.4784 12.5302C15.7068 12.6248 15.902 12.785 16.0394 12.9905C16.1767 13.1961 16.2501 13.4378 16.2501 13.685C16.2501 14.0165 16.1184 14.3345 15.8839 14.5689C15.6495 14.8033 15.3316 14.935 15.0001 14.935ZM18.9401 12.505C18.9401 12.6376 18.8874 12.7648 18.7936 12.8586C18.6998 12.9523 18.5727 13.005 18.4401 13.005H17.1501C17.0045 12.5491 16.7177 12.1513 16.3313 11.8691C15.9448 11.5868 15.4786 11.4347 15.0001 11.4347C14.5215 11.4347 14.0553 11.5868 13.6689 11.8691C13.2824 12.1513 12.9957 12.5491 12.8501 13.005H12.0301V5.705H16.4101C16.6486 5.7066 16.8835 5.76449 17.0955 5.87396C17.3075 5.98344 17.4906 6.1414 17.6301 6.335L18.6601 7.765C18.84 8.01961 18.9377 8.32322 18.9401 8.635V12.505Z" fill="#797979"/>
<path d="M16.0291 8.205H14.0291C13.8964 8.205 13.7693 8.15232 13.6755 8.05856C13.5817 7.96479 13.5291 7.83761 13.5291 7.705C13.5291 7.57239 13.5817 7.44522 13.6755 7.35145C13.7693 7.25768 13.8964 7.205 14.0291 7.205H16.0291C16.1617 7.205 16.2888 7.25768 16.3826 7.35145C16.4764 7.44522 16.5291 7.57239 16.5291 7.705C16.5291 7.83761 16.4764 7.96479 16.3826 8.05856C16.2888 8.15232 16.1617 8.205 16.0291 8.205Z" fill="#797979"/>
</svg>
