<svg width="25" height="24" viewBox="0 0 25 24" fill="none" xmlns="http://www.w3.org/2000/svg">
<path d="M11.1233 15.17C10.9233 15.17 10.7333 15.09 10.5933 14.95L8.17331 12.53C7.88331 12.24 7.88331 11.76 8.17331 11.47C8.46331 11.18 8.94331 11.18 9.23331 11.47L11.1233 13.36L15.4233 9.06C15.7133 8.77 16.1933 8.77 16.4833 9.06C16.7733 9.35 16.7733 9.83 16.4833 10.12L11.6533 14.95C11.5133 15.09 11.3233 15.17 11.1233 15.17Z" fill="#797979"/>
<path d="M12.3331 22.75C11.7031 22.75 11.0731 22.54 10.5831 22.12L9.00313 20.76C8.84313 20.62 8.44313 20.48 8.23313 20.48H6.51313C5.03313 20.48 3.83313 19.28 3.83313 17.8V16.09C3.83313 15.88 3.69313 15.49 3.55313 15.33L2.20313 13.74C1.38313 12.77 1.38313 11.24 2.20313 10.27L3.55313 8.68C3.69313 8.52 3.83313 8.13 3.83313 7.92V6.2C3.83313 4.72 5.03313 3.52 6.51313 3.52H8.24313C8.45313 3.52 8.85313 3.37 9.01313 3.24L10.5931 1.88C11.5731 1.04 13.1031 1.04 14.0831 1.88L15.6631 3.24C15.8231 3.38 16.2231 3.52 16.4331 3.52H18.1331C19.6131 3.52 20.8131 4.72 20.8131 6.2V7.9C20.8131 8.11 20.9631 8.51 21.1031 8.67L22.4631 10.25C23.3031 11.23 23.3031 12.76 22.4631 13.74L21.1031 15.32C20.9631 15.48 20.8131 15.88 20.8131 16.09V17.79C20.8131 19.27 19.6131 20.47 18.1331 20.47H16.4331C16.2231 20.47 15.8231 20.62 15.6631 20.75L14.0831 22.11C13.5931 22.54 12.9631 22.75 12.3331 22.75ZM6.51313 5.02C5.86313 5.02 5.33313 5.55 5.33313 6.2V7.91C5.33313 8.48 5.06313 9.21 4.69313 9.64L3.34313 11.23C2.99313 11.64 2.99313 12.35 3.34313 12.76L4.69313 14.35C5.06313 14.79 5.33313 15.51 5.33313 16.08V17.79C5.33313 18.44 5.86313 18.97 6.51313 18.97H8.24313C8.82313 18.97 9.55313 19.24 9.99313 19.62L11.5731 20.98C11.9831 21.33 12.7031 21.33 13.1131 20.98L14.6931 19.62C15.1331 19.25 15.8631 18.97 16.4431 18.97H18.1431C18.7931 18.97 19.3231 18.44 19.3231 17.79V16.09C19.3231 15.51 19.5931 14.78 19.9731 14.34L21.3331 12.76C21.6831 12.35 21.6831 11.63 21.3331 11.22L19.9731 9.64C19.5931 9.2 19.3231 8.47 19.3231 7.89V6.2C19.3231 5.55 18.7931 5.02 18.1431 5.02H16.4431C15.8631 5.02 15.1331 4.75 14.6931 4.37L13.1131 3.01C12.7031 2.66 11.9831 2.66 11.5731 3.01L9.99313 4.38C9.55313 4.75 8.81313 5.02 8.24313 5.02H6.51313Z" fill="#797979"/>
</svg>
